<?xml version="1.0" encoding="UTF-8"?>
<svg xmlns="http://www.w3.org/2000/svg" xmlns:xlink="http://www.w3.org/1999/xlink" version="1.1" viewBox="0 0 120 120">
  <defs>
    <style>
      .cls-1 {
        fill: none;
      }

      .cls-2 {
        fill: #2b2c30;
      }

      .cls-3 {
        fill: #a67359;
      }

      .cls-4 {
        fill: #ffbdad;
      }

      .cls-5 {
        fill: #f7e1d2;
      }

      .cls-6 {
        clip-path: url(#clippath);
      }
    </style>
    <clipPath id="clippath">
      <rect class="cls-1" width="120" height="120"/>
    </clipPath>
  </defs>
  <!-- Generator: Adobe Illustrator 28.7.2, SVG Export Plug-In . SVG Version: 1.2.0 Build 154)  -->
  <g>
    <g id="Layer_1">
      <g class="cls-6">
        <g>
          <g>
            <path class="cls-3" d="M73.7,29.8c-.9,0-1.3-.7-1.4-1.1.5-1.5,1.4-5.3,1.1-8.2s-1.1-6.9-1.4-8.6c-1.9-1.1-6.6-3.3-10-3.6-3.4-.3-8.3.6-10.3,1.1l-3.9,13.9v1.4c-1.1,0-3.2.4-3.2,2.1s1.9,1.9,2.9,1.8c-.5,3-1.2,9.5-.4,11.8s1.5,3.9,2.9,7.1.2.5.2.7c-.9.9-2,3.8-1.5,4.9s.9,1.6,1.1,2.1c1.1,2.6,4.4,2.6,4.4,2.6l5,3.5,6.8-5.3,3.6-5-1.1-5.7c1.2-2.3,3.6-7.3,3.9-9.6l.4-1.4c1.1.4,3.2.6,3.2-1.4s-1.1-3.2-2.1-3.2Z"/>
            <path class="cls-2" d="M52.5,55"/>
            <path class="cls-2" d="M52.3,46.8c-.3-.1-.5-.1-.6-.3-1.1-.9-1.9-2-2.6-3.2-1.2-2.3-1.6-4.8-1.7-7.4,0-1.5.1-3,.2-4.6,0,0,0-.2-.1-.3-.2,0-.3,0-.7,0-1,5.3-.9,10.3,2.5,14.6-.1,1.2.7,1,.7,1,0,0,2.4,1.7,2.1.7.2-.3.3-.5.3-.5Z"/>
            <path class="cls-2" d="M70.6,50.4c0-.1-.1-.2-.2-.3-.1,0-.3,0-.5,0-.3-1.6-.6-3.2-1-5,2-2.6,3.9-5.4,3.7-9.1-.3,0-.6,0-.7.1-.2,0-.3.3-.2.2-.3,1.2-.4,2.1-.7,3-1.3,4-3.9,7-7.8,8.8-2.1,1-4.2,1.3-6.5.4-.4-.2-.4-.2-1.4.2,4.9,2,8.8.3,12.5-2.7.4,1.9.7,3.6,1,5.3,0,.1-.2.2-.3.3.8,0,1.4-.5,1.9-1.1Z"/>
            <polygon class="cls-2" points="70 51.6 70 51.6 70 51.6 70 51.6"/>
            <path class="cls-2" d="M72.7,29.6c-.2-.1-.4-.2-.6-.4,0-1.5-.2-3.1,0-4.5.3-1.9.2-3.8.2-5.7,0-2-.3-3.9-.8-5.9,0-.3,0-.6,0-.7-2.4-2-5.1-3-7.9-3.5-2.1-.4-4.3-.8-6.5-.2-.4.1-.9,0-1.3,0-.8,0-1.7.1-2.5.3-.6.2-1.2.5-1.4,1.3-.5,1.5-1.2,3-1.6,4.5-.6,2-1,4-1.5,6-.2.8-.2,1.7-.4,2.5-.5.3-.8.1-1.1-.4.1-1.4-.2-3,.3-4.5,0-.1,0-.3,0-.4,0-1.9.3-3.8.5-5.6.3-2.7,1-5.3,1.5-7.9.2-.7.4-1.4.7-2.1.2-.6.5-1,1.3-1.2.3.2.7.5,1,.8.7-.3,1.5-.9,2.4-.2.7-.2,1.3-.6,1.9,0,.7,0,1.4-.2,2.2-.3.8.9,2,.4,2.9.9.7-.2,1.3-.2,1.9,0,.1,0,.3-.2.4-.3.2-.1.3-.2.5-.4.4,0,.9,0,1.3.1,0,0,0,0,0,.1.6,0,1.1-.2,1.6-.3.3.3.5.6.8.9.5-.2.9-.4,1.5-.6.4.5.8.9,1.2,1.5,1.1,0,1.3,1,1.8,1.8.6-.1,1.1-.3,1.8-.4.3.2.8.5,1.1.7.2.8.3,1.4.4,2,0,.2,0,.5,0,.7-.3,1.8-.3,3.7-.6,5.5-.2,1.6-.4,3.2-.6,4.8-.3,2.3-.4,4.7-1.1,7-.4,1.4-1,2.7-1.5,4.1h0s0,0,0,0ZM49,14.8c.1-.1.2-.2.3-.4.5-1.8.9-3.5,1.9-5.2.7-.4,1.5-.6,2.3-.8,1-.2,2-.1,3-.3,2.5-.5,5-.3,7.4.2,3.1.5,5.9,1.7,8.6,3.6.9,3.1,1.2,6.3,1.3,9.5.1-.6,0-1.3.2-1.9.2-1.9.6-3.7.8-5.6.2-1.4.2-2.8.3-4.3,0-.2,0-.5.1-.7.3-1.3,0-2.5-.4-3.7-.6.2-1.2.4-1.7.5-.4-.2-.7-.3-1.1-.5-.2-1-.6-1.7-1.7-1.5-.3-.3-.5-.6-.6-.9-.4.2-.8.4-1.3.6-.4-.3-.9-.7-1.2-.9-.7,0-1.4.1-2.1.2-.2.1-.4.3-.8.6-.5-.1-1-.4-1.6-.4-1.4,0-2.7-.4-4-.8-.3,0-.7-.2-.8,0-.7.5-1.3.1-1.8,0-1.1.4-1.1.4-2.1,0-.8.6-1.7.7-2.6.3-.2.8-.5,1.5-.7,2.2-.5,1.9-1,3.8-1.2,5.8-.2,1.4-.6,2.9-.5,4.3,0,.1-.2.3-.2.4h.2c0-.1,0-.3,0-.4h0Z"/>
            <path class="cls-2" d="M62.3,21.8c.2-.7.8-1.1,1.4-1.1,1.3-.2,2.6-.2,3.8.3.6.2,1.1.7,1.7,1v.8c-1.2,1-2.6.8-4,.6-1.1-.2-2.4-.4-3-1.6h0Z"/>
            <path class="cls-2" d="M59.1,20.6c0,1.1-1,1.1-1.5,1.2-1.8.3-3.3-.3-4.6-1.5v-.9c1-.8,2.2-.6,3.2-.4,1.1.2,2.2.6,2.9,1.6h0Z"/>
            <path class="cls-2" d="M72.7,29.6c.4,0,.7-.1,1.3-.2.8.3,1.9.2,2.5,1.4.5,1,.7,1.9.3,3-.4.4-.8.8-1.2,1.1-2,.6-3,.3-3.8-.9,0,0,.1-.2.2-.2.2,0,.5,0,.8,0,.2.2.5.4.7.6h1.1c.3-.3.6-.6.9-.9.2-1.3.3-2.5-1-3.4h-1.7c0-.2,0-.4,0-.6h0s0,0,0,0Z"/>
            <path class="cls-2" d="M60.6,29.6c.4.2.9.5,1.4.7-.2.2-.5.3-.6.5-.7-.3-1.4-.5-2.1-.7-.3.3-.5.6-.7,1v1.5c.4.8,1.1,1.4,2.1,1.9h-1.7c-1-.7-1.6-1.5-1.8-2.8.6-1.9.9-2.1,3.4-2"/>
            <path class="cls-2" d="M44.1,27.8v-1.7c1.4-1.8,2.5-2.1,4.3-1.3-.6.3-1.2,0-1.7.2-1.2.3-1.6,1.2-1.5,2.4.6.9,1.4,1.4,2.6,1.3-.5.5-1.3.6-2.6.2-.3-.3-.7-.7-1.1-1.1h0Z"/>
            <path class="cls-2" d="M54,24c.5,0,.9.4.9.9s-.4.9-.9.9-.9-.4-.9-.9.4-.9.9-.9"/>
            <path class="cls-2" d="M64.7,26.2c.5,0,.9.4.9.9s-.4.9-.9.9-.9-.4-.9-.9.4-.9.9-.9"/>
          </g>
          <path class="cls-2" d="M56.8,39.8c.9.3,1.7.5,2.6.6,1.1,0,2.2-.3,3.1-.9,0,0-.4-.5-.4-.5,0,0-.4-.5-.5-.4-1,.5-2,.9-3.1.9-.9,0-1.7-.3-2.5-.6-.1,0,.2.4.3.4.1.1.4.5.6.5h0Z"/>
          <g>
            <path class="cls-4" d="M39.3,130.9l22.9-7.7,25.1,4.3.9,109.2v18c-.3.2-1.2,1.1-2.5,2.8-1.5,2.2-2.8,3.1-6.8,1.2-3.2-1.5-4.8-.6-5.3,0l-7.7-91.8-.9-7.1-3.4,66-1.5,31c-2.8,0-2.8,3.1-5.3,3.1s-3.7-5.3-5-5.9c-1-.5-3.3.2-4.3.6l-5.6-108.9-.7-14.9Z"/>
            <path class="cls-5" d="M24,89.1c2.5-.2,6.7-.5,9-.6l.6-12.7c.3,2.8,2.4,11.5,3.1,16.4.7,5,.7,10.5.9,12.7l1.5,9.6v16.5c.8-.3,3.5-1.1,5-1.5,1.9-.6,6.5-.9,9.9-1.2,3.4-.3,13.6.3,16.1.6s7.7-.3,9.9-.6c1.7-.2,5.1-.9,6.5-.9l-.3-9.9c-.5-7.6-1.5-23.3-1.5-26s.4-12.9.6-17.7l2.5,10.2,4.6-.9,4-.3,4.6.9c0-.8-.2-3-.9-5.3-.9-2.8-2.5-10.5-6.2-15.2-3.7-4.6-9-7.1-12.7-8.4-3-1-6.2-1.7-7.7-1.9.1,0-.9-.2-.9-.9s-.7-2.2-1.1-2.8l-12.2,12.6-.9-.9c-2.6-2-8-6.1-9-7.1s-.2-3.5.3-4.6c-.3.1-1.1.5-1.9,1.2-.7.7-1.7,2-1.9,2.5-1.5.2-6.9,1.7-13.3,6.2-8.1,5.6-10.8,12.7-12.4,17.3s-2.6,10.7-3.1,13.6c1-.2,4.3-.7,6.8-.9"/>
            <path class="cls-3" d="M20.1,101.7v-11.8l.9-.3,4.3-.6,8.1-.3-.9,17.7c.7-.1,2.4-.3,3.4-.3s3.7-1.5,4.6-2.2,5-2.5,5.9-3.1c.7-.5,2-.4,2.5-.3l1.1.7v2.7l-1.7,4c-2.7.7-6.9,3.4-8.7,4.6-1.9,1.1-5.9,3.6-7.4,4.3-1.9.9-5,.6-8.4-1.9-3.5-2.4-3.8-11.8-3.8-13.3Z"/>
            <path class="cls-3" d="M94.5,82.8c-1,0-4.5.6-6.2.9l3.4,20.1c-1.9,0-3.4-.9-5.9-2.2s-5.6-2.8-6.8-2.8-3,1.1-3.9,1.7v3.3c0,0-.6,1.3-.6,1.3l-.4.2,2.7,1.4c.8,0,2.9.5,4.1.8s4.2,2.2,5.6,3.1c1.2,1.4,5.1,4.3,10.5,4.3s7.7-5,8.4-7.1-.9-7.4-1.5-10.5c-.5-2.5-2.9-10.3-4-13.9-1.4-.2-4.3-.6-5.3-.6Z"/>
            <path class="cls-2" d="M100.9,83.4c-.2-1-.2-2-.5-3-1-3.6-2-7.2-3.3-10.7-.9-2.5-2.2-4.9-3.9-7.1-1.5-1.9-3.4-3.3-5.4-4.6-2.8-1.7-5.9-3.2-9.1-4.1-.7-.2-1.5-.4-2.4-.6-1.1-.2-2.2-.4-3.4-.6-.1.2-.2.4-.3.6-.3,2.2-1.1,4.2-2.2,6.1-.4.6-.9,1.2-1.4,1.7-.6.7-1.1,1.3-1.7,2-.2,0-.4-.1-.7-.2,0-2.3-1.2-4-2.6-5.8l-1.2,1.2c-.7.7-1.4,1.4-2.1,2-.4.4-.9.7-1.4,1.2,0,0,.1.2.1.4.1,1.5,0,3.2.3,4.6.2,1.4,0,2.7.4,4,0,.1,0,.3,0,.5,0,1.6.2,3.2.4,4.8,0,.6,0,1.2,0,1.9-.1.1-.3.2-.4.4-.2-.1-.3-.2-.5-.4v-1c-.1-1.4-.1-2.8-.4-4.2v-.2c0-1.5-.1-3.1-.3-4.6-.2-1.4-.2-2.7-.2-4.1s0-.3-.1-.4c-.2-.5-.1-1,.1-1.5-1.4-1.2-2.9-2.4-4.5-3.6-.4.4-.6,1-.8,1.6s-.5,1.2-.7,1.9-.2,1.2-.3,1.8c-.1.6-.2,1.2-.4,1.8h-.8c-.7-.7-1.4-1.4-2-2.2-1.1-1.3-2-2.6-2.8-4.2-.7-1.4-1.2-2.8-1.1-4.5,0-.4,0-.9,0-1.5-.4.1-.8.2-1.1.4-2,.9-4,1.9-5.9,2.8-3,1.5-5.9,3.3-8.5,5.5-1.8,1.5-3.4,3.2-4.8,5-1.1,1.4-1.9,2.8-2.7,4.3-.9,1.9-1.7,3.9-2.2,5.9-.6,1.9-1,3.8-1.5,5.8-.4,1.4-.8,2.8-.9,4.4,0,.4-.2.9-.2,1.4,0,.4,0,.9,0,1.4,5-1.4,10-1.4,15.1-1.4v-1c.4-4,.1-8,.2-12,0-.5.2-1,.2-1.4h.5c0,0,.1.2.1.2-.2,1.4.4,2.6.6,3.9.2,1.2.4,2.4.7,3.6.3,1.4.4,2.7.7,4.1.2,1.2.3,2.5.6,3.8.2,1.1.4,2.1.6,3.2.1.6.2,1.2.2,1.8.1,1,.2,1.9.2,2.9,0,.7.2,1.5.2,2.3,0,.7,0,1.5.2,2.2.1.6,0,1.2,0,1.9s0,.6,0,.9c1.3-.7,2.5-1.4,3.6-2,1.5-.8,3-1.9,4.7-2.4s.1.5,0,.6c-1.3.4-2.3,1.1-3.4,1.8-1.7,1-3.3,2-5.1,2.7-1.4.6-2.8,1.1-4.3.9-.2.2-.4.3-.6.4-.4,0-.9-.2-1.2-.2h-5.9c-.7.4-1.4.8-2.3,1.2.1-.3.2-.5.3-.6,1.3-.9,2.7-1.1,4.2-1.1h4.2v-.9c.1-1.5.2-3,.3-4.5,0-1,0-1.9.2-2.9.2-1.7,0-3.5.3-5.1.1-1,.1-1.9.2-2.9,0-.2-.1-.5-.2-.7-1.1.2-2,.2-3.1,0-.9-.2-1.8,0-2.7,0s-.4,0-.7,0c-1.5,0-3.1,0-4.6.3-1.2.2-2.3.5-3.5.7-.4.1-.9.2-1.4.2,0-1.1-.2-2,0-3,.2-.6,0-1.2.3-1.8.1-1.6.7-3.1,1.1-4.6.6-2.5,1.4-5,2.3-7.4.9-2.5,2.2-4.8,3.8-7,1.1-1.5,2.4-2.9,3.8-4.2,1.5-1.4,3.2-2.6,4.9-3.7,2.7-1.7,5.6-3.2,8.5-4.6,1.4-.7,2.8-1.2,4.3-1.9.7-1.7,1.9-3.1,3.5-4.2h.9c0,.1,0,.2,0,.2-.7.7-.9,1.5-1.1,2.5-.2,2,.8,3.5,2.4,4.6,1.4,1,2.8,1.9,4.2,3,1.1.9,2.2,1.8,3.3,2.7.5-.6,1-1.1,1.5-1.5,2.1-2,4.3-4.1,6.3-6.1,1.1-1.1,2-2.2,3-3.3.4-.4.6-1,.8-1.5.1-.3.3-.6.8-.5,1.3,1.1,1.4,2.7,1.4,4.4.9.1,1.9.2,2.8.3s1.9.3,2.8.6c2.7.7,5.1,1.7,7.6,3,3,1.5,5.8,3.4,8.1,6.1,1.3,1.5,2.3,3.2,3.1,5,.9,2.1,1.7,4.3,2.4,6.5.8,2.5,1.5,5.1,2.1,7.7.2.8.4,1.6.6,2.4-.3.1-.4.2-.7.3-.3-.1-.6-.2-1-.4.9,3.1,1.9,6.1,2.7,9.2.6,2.1,1.2,4.3,1.8,6.4.3,1.1.5,2.2.7,3.4.2,1.4.2,2.7.2,4.1,0,1.8-.5,3.5-1.5,4.9-1.1,1.7-2.8,2.7-4.8,3.2-1.4.4-3,.4-4.5.2-2.7-.3-5.2-1-7.4-2.7-.4-.3-.7-.7-1.2-1.1v1.9c0,.6,0,1.2.1,1.7,0,.2,0,.6,0,.8,0,1,0,2,0,3,.2,1.9.2,3.9.2,5.8,0,.6.2,1.3.3,2,0,0,.2.2.3.4-.1.1-.2.2-.4.3h-1.7c-1.2,0-2.4.2-3.5.4-1.3.2-2.6.3-3.9.6-1.3.2-2.7.1-4,.2-.8,0-1.5.2-2.3.1-1.7-.2-3.5,0-5.1-.2-1.2-.1-2.5,0-3.7-.2-2.8-.4-5.6-.2-8.4-.2s-2.7.2-4,.4c-1,.2-2,.3-3.1.5-1.9.3-3.7.8-5.5,1.4-.7.2-1.4.4-2.2.4.2-.1.4-.2.6-.3,2-.7,4-1.4,6.1-1.8,1.2-.2,2.4-.3,3.5-.6s2.4,0,3.6-.4c.1,0,.3,0,.5,0,2.7,0,5.5-.1,8.2,0,1.4,0,2.9,0,4.3.2,3.3.4,6.5.2,9.7.1,1.4,0,2.9-.2,4.3-.6.7-.2,1.4-.2,2-.2,1.2-.2,2.3-.2,3.5-.2,0,0,0,0,.2-.1-.1-.6.1-1.2-.2-1.9-.1-.2,0-.4,0-.7,0-2.9,0-5.8-.3-8.7-.1-1.4-.2-2.7-.2-4.1s-.2-1.1-.7-1.4c-1.3-1.1-2.8-1.9-4.4-2.5-.6-.2-1.2-.3-2-.5.2,0,.3-.1.4-.1,1.1.1,2.2.2,3.2.7,2,.8,3.7,2,5.2,3.5,1.8,1.7,3.9,2.8,6.3,3.4,1.4.3,3,.4,4.5.2,1.4-.1,2.7-.7,3.9-1.5,1.4-1,2.2-2.3,2.6-3.8.2-.7.3-1.4.4-2.2,0-.9,0-1.7,0-2.6s-.1-1.7-.2-2.5c-.4-1.9-.8-3.7-1.4-5.5-.9-3-1.7-6-2.6-9-.3-1.2-.7-2.4-1-3.5,0-.2-.2-.5-.4-.7-.6-.2-1.2-.4-1.9-.4s-1-.2-1.5-.2c-2,0-3.9.4-5.8.7-.3,0-.7.1-1.1.2-.2,0-.4.1-.7.2.5,3,1,5.9,1.5,8.9.6,2.9,1.1,5.8,1.7,8.8-.3,0-.5,0-.7,0-.2-.9-.6-1.7-.7-2.5-.4-1.7-.6-3.4-.9-5.1-.4-2.1-.8-4.2-1.2-6.3-.3-1.9-.7-3.8-1.1-5.7-.2-1.5-.6-3-1-4.6,0,.2-.1.3-.1.4,0,2.2,0,4.4-.3,6.6-.3,2.8-.2,5.6-.1,8.4,0,1.6,0,3.2.2,4.8.2,1.2,0,2.5.2,3.8.3.2.6.6,1.1.7,1.1.6,2.1,1,3.3,1.2,2.2.4,4.3,0,6.4.2,2.4.2,4.6,1,6.4,2.7l.2.2v.2c-.2.2-.4.2-.7,0-.6-.4-1.1-.8-1.7-1.2-1.4-1-3-1.4-4.6-1.5-1.4,0-2.7,0-4.2,0-2.3,0-4.3-.7-6.3-1.7-1.1-.6-2-1.3-3-1.9-.4-.2-1.1-.6-1.1-.6,0,0,.2-.5.3-.4.9.4,1.9.9,2.8,1.4-.1-1.1.2-2.2-.2-3.2,0-.1,0-.2,0-.4,0-2.8-.2-5.7-.2-8.5s0-4.7.2-7c.1-1.2,0-2.5.2-3.7.3-1.6.2-3.3.2-4.9s-.2-1.4-.3-2.2c.4,0,.6,0,.9-.1.6,4.3,1.7,8.4,2.5,12.5,1,.1,1.8-.2,2.6-.4,2-.5,4.1-.7,6.1-.6,1.2.1,2.5.3,3.7.9-.1.1,0,0,.1.1,0,0,.1,0,.2,0,0,0-.1,0-.2,0h0ZM37.2,105.3c-.1-2.1-.2-4.1-.3-6.1v-.2c-.4-1.1-.2-2.2-.4-3.3-.2-.8-.1-1.7-.3-2.5-.4-1.9-.7-3.7-.9-5.6,0-.6-.2-1.3-.3-1.9-.1-.8-.2-1.7-.4-2.5s-.2-1.7-.4-2.7c-.4,1.4,0,2.8-.3,4.1s0,2.7,0,4c.2.1.3.2.4.2-.2.1-.3.2-.4.2,0,3.2,0,6.4-.2,9.6-.1,1.5-.2,3-.2,4.5v.2c-.4,1-.1,2-.2,2.9,1.4-.2,2.7-.4,4-.9h0ZM53.7,57.9c-.1-.1-.1-.2-.2-.2-1.2-.9-2.4-1.6-3.6-2.5-.7-.6-1.2-1.4-1.5-2.3-.2-1-.2-2,0-3-1.2.9-1.3,2.2-1.9,3.4v1.9c0,.8.1,1.6.4,2.4.4,1,.9,2,1.4,2.8.9,1.4,1.9,2.5,3.1,4,.6-2.2,1-4.5,2.2-6.4h0ZM71.5,49.4c-.8,1.5-2.1,2.7-3.3,3.8-1.1,1.2-2.3,2.5-3.5,3.7.6.7,1.1,1.4,1.7,2.2.6.7.9,1.6,1.1,2.6.4-.5.7-.9,1.1-1.2.7-.9,1.4-1.8,1.8-2.8.7-2,1.5-4,1.5-6.1,0-.6,0-1.4-.4-2.1Z"/>
            <path class="cls-2" d="M59.4,257.2c.3,0,.6,0,.9.4v6.6c0,.4-.1.7-.1,1,0,.7-.6,1.1-1.2,1.3-1.2.4-2.4.6-3.6.8-1.3.1-2.6.3-3.8.1-1.5-.2-3.2-.3-4.6-.1s-3,0-4.4.4c-.2,0-.6,0-.8,0-1.4,0-2.8.2-4.3.4h-.1c-2.2.2-4.4.4-6.6.2-1.2,0-2.5-.3-3.6-.7-1.5-.6-2.8-1.5-3.3-3.2,0-.6-.2-1.1-.2-1.7,0-.2.2-.6.3-1,6.2-1.2,12.4-2.5,18.7-3.6.6-1.2,1.1-2.5,2.2-3.6-.1-1.2.2-2.4-.2-3.5v-.2c0-2.5-.2-4.9-.2-7.4,0-2,0-4-.2-5.9-.2-1.5,0-3.2-.2-4.6-.2-1.7,0-3.3-.2-5-.2-1.4,0-2.9-.2-4.3-.2-1.8,0-3.6-.2-5.4-.2-1.5,0-3-.2-4.5-.2-1.7,0-3.5-.2-5.3-.2-1.5,0-3-.2-4.5-.2-1.7,0-3.5-.2-5.3-.2-1.4,0-2.8-.2-4.2-.2-1.9,0-3.7-.2-5.5-.1-1.4,0-2.7-.2-4.1-.2-1.8,0-3.6-.2-5.4-.1-1.2-.1-2.4-.2-3.5-.1-2,0-4.1-.3-6.1-.2-1.5,0-3-.2-4.5-.2-1.7,0-3.5-.2-5.3-.2-1.5,0-3-.2-4.5-.2-1.7,0-3.5-.2-5.3-.2-1.5,0-3-.2-4.6-.2-1.8,0-3.6-.2-5.4-.3-2.4-.1-4.7-.2-7.1,0,0,0-.1.1-.3.2.1.4.2.6.3v1.4c0,.9.2,1.8.2,2.7,0,.9-.1,1.9,0,2.7.2,1.4,0,2.7.2,4.1.2,1.7,0,3.5.2,5.1.2,1.4,0,2.8.2,4.2.2,1.9,0,3.7.2,5.5.1,1.4,0,2.7.2,4.1.2,1.9,0,3.8.2,5.6.1,1.4,0,2.8.2,4.2.2,1.9,0,3.7.2,5.5.1,1.2,0,2.5.2,3.7.2,2,0,4.1.2,6.1.1,1.5,0,3,.2,4.5.2,1.7,0,3.5.2,5.3.2,1.5,0,3,.2,4.5.2,1.7,0,3.3.2,5,.2,1.5,0,3,.2,4.6.2,1.7,0,3.5.2,5.1.2,1.5,0,3,.2,4.5.2,1.7,0,3.5.2,5.3.2,1.5,0,3,.2,4.5.2,1.9,0,3.7.2,5.5.1,1.4,0,2.7.2,4.1.2,1.8,0,3.6.2,5.4.2,1.4,0,2.8.2,4.2,0,1,.2,1.9.2,3,.4-.1,1-.2,1.4-.4.8-.4,1.6,0,2.4.2.8.2,1.4.8,1.9,1.5.5.8.9,1.5,1.2,2.5.2.6.5,1.1.7,1.5,1.2.7,1.7.7,2.6-.2.4-.4.8-.7,1.2-1.2.7-.8,1.7-1.1,2.7-1.2v-1.1c.1-2.3.1-4.5.3-6.8.1-1.7,0-3.3.2-5,.2-1.8,0-3.6.2-5.4.2-1.7,0-3.3.2-5,.2-1.8,0-3.6.2-5.4.2-1.5,0-3.2.2-4.6.2-1.9,0-3.7.2-5.5.2-1.7,0-3.3.2-4.9.2-1.9,0-3.7.2-5.5.2-1.6,0-3.2.2-4.8.2-1.8,0-3.6.2-5.4.2-1.6,0-3.2.2-4.8.2-1.8,0-3.6.2-5.4.2-1.5,0-3.1.2-4.6.2-1.9,0-3.8.2-5.7.2-1.4,0-2.9.2-4.3.2-1.9,0-3.8.2-5.6.1-1.4,0-2.7.2-4.1.2-1.6,0-3.3.2-4.9.1-.9.1-1.9.2-2.8h.6c.1,1.2.2,2.5.3,3.7s.2,1.2.2,1.9c0,.6-.1,1.2.2,1.7,0,0,0,.2,0,.2,0,1.4.2,2.8.2,4.2,0,.6.1,1.2.2,1.9,0,.6-.2,1.2.2,1.7,0,0,0,.2,0,.2,0,1.4.2,2.8.2,4.2,0,.7.1,1.4.2,2,0,.7-.1,1.4.2,2v.2c0,1.4,0,2.9.3,4.3.2,1.2,0,2.5.4,3.8v.2c0,1.4.1,2.8.2,4.3.2,1.9.4,3.8.5,5.8,0,.9,0,1.9.2,2.8.2,1.8.3,3.7.5,5.5.2,1.9.3,3.7.5,5.6.1,1.9.4,3.8.5,5.8.1,1.8.3,3.5.4,5.3.1,1.9.4,3.8.5,5.8,0,.9,0,1.9.2,2.8.3,1.2,0,2.5.4,3.7h0c0,1.5,0,3,.3,4.5.2,1.2,0,2.5.4,3.8h0c0,1.6.2,3.1.2,4.6,0,.7.2,1.3.2,2,0,.7,0,1.3.2,2v.2c0,1.4.2,2.8.2,4.3,0,.5.1,1,.2,1.5h-.4c0-.1-.1-.2-.1-.2-.2-1.3-.1-2.7-.4-4v-.2c0-1.5,0-3-.3-4.5-.2-1.2,0-2.5-.4-3.8h0c0-1.6-.2-3.1-.2-4.6,0-.6-.1-1.2-.2-1.9,0-.6.1-1.2-.2-1.7,0,0,0-.2,0-.2,0-1.4-.2-2.8-.2-4.3,0-.6-.1-1.2-.2-1.9,0-.6.2-1.2-.2-1.9,0,0,0-.2,0-.4,0-1.5,0-3-.3-4.4-.2-1.2,0-2.5-.4-3.8v-.2c0-1.5-.2-3-.2-4.5,0-.7-.1-1.3-.2-2,0-.6.1-1.2-.2-1.9,0,0,0-.2,0-.4,0-1.4-.1-2.8-.2-4.3-.2-1.9-.4-3.8-.5-5.8,0-.9,0-1.9-.2-2.8-.2-1.8-.4-3.7-.5-5.5-.1-1.9-.4-3.8-.5-5.7-.1-1.8-.3-3.5-.5-5.3-.1-1.9-.4-3.8-.5-5.8-.1-1.9-.4-3.7-.5-5.6-.1-2-.5-4.1-.5-6.1-.3.8-.4,1.5-.4,2.4,0,1,0,2,0,3-.2,1.9,0,3.8-.2,5.6-.2,1.6,0,3.2-.2,4.8-.2,1.9,0,3.8-.2,5.6-.2,1.6,0,3.2-.2,4.8-.2,1.9,0,3.8-.2,5.6-.2,1.5,0,3.1-.2,4.6-.2,1.9,0,3.8-.2,5.7-.2,1.5,0,3-.2,4.5-.2,1.9,0,3.8-.2,5.7-.1,1.4,0,2.7-.2,4.1-.2,2,0,4.2-.2,6.2-.2,1.6,0,3.2-.2,4.8-.2,1.8,0,3.6-.2,5.4-.2,1.6,0,3.3-.2,4.9-.2,1.7,0,3.5-.2,5.3-.2,1.7,0,3.3-.2,4.9-.2,1.5-.2,3-.2,4.3-.3.3-.6.6-.9.9-.7.1-.9.2-1.1.3-.7,0-1.1.6-1.5,1-.7.7-1.4,1.5-2.6,1.9h-1.6c-.4-.2-.9-.5-1.3-.7-.2-.7-.6-1.4-.8-2-.3-.7-.6-1.4-1-2-.6-.8-1.2-1.2-2.6-1.6,0,0-.1.1-.2.1-1.2.1-1.9.9-2.7,1.7-.7.9-1.2,1.8-1.5,2.8,0,.2-.2.4-.4.6-.3-.1-.6-.2-.7-.2-6.1,1.2-12.1,2.4-18,3.6,0,.2.1.4.2.6,1.6,1.9,3.7,2.7,6.1,2.7.9,0,1.9-.2,2.8-.5,1.8-.4,3.7-.9,5.5-1.4,1.7-.4,3.3-.7,5-1.2.7-.2,1.5-.2,2.5-.3-.4.6-.9.6-1.4.7-1.2.3-2.5.5-3.7.8-1.5.4-3.1.8-4.7,1.1-1.7.4-3.4,1-5.2,1-1.2.5-2.4.1-3.5-.2-1.3-.3-2.4-1.1-3.5-2-.2.7,0,1.2.4,1.6.7.9,1.5,1.8,2.6,2.1,1.1.3,2.2.6,3.3.7,2,.2,4,0,5.9-.2,1.5-.1,3-.4,4.5-.4s.3,0,.5,0c.7-.3,1.5-.1,2.2-.2.7,0,1.5-.2,2.3-.2,1.1,0,2.3,0,3.4,0s2,0,3,.2c.6,0,1.2-.1,1.9-.2.9,0,1.7-.1,2.5-.2,1.7-.2,2.2-.9,2.2-2.6,0-2.4,0-4.6,0-6.9h0Z"/>
            <path class="cls-2" d="M87,130.5c.1-.1.2-.2.4-.4.1.1.2.2.4.4,0,2.5-.1,5,0,7.4.3,4.3.1,8.6.2,12.9,0,4.3-.1,8.6,0,12.9.2,5.3.1,10.5.2,15.8,0,5.2-.1,10.5,0,15.7.2,5.3.1,10.7.2,16,0,5.3-.1,10.7,0,16,.2,4.4.1,8.8.2,13.2,0,4.4,0,8.8,0,13.2v.7c.4,0,.6,0,1.1-.1,0,0,0,0,0,0,2.1.3,3.1,1.7,3.7,3.6.1.5.3.9.4,1.4,2.8.5,5.6,1,8.4,1.5,2.8.6,5.6,1,8.4,1.7-.1.2-.2.2-.2.3.1,0,.3.2.4.3-.7,1.9-2,3-3.8,3.6-1.3.5-2.7.7-4.1.7-1.5,0-3,0-4.5,0-3.8-.4-7.7-.2-11.5-.2s-2.5.1-3.7.4c-.1,0-.3,0-.5,0h-6c-1.2,0-2.2-.4-2.7-1.5-.3-.6-.4-1.3-.5-2-.2-1-.3-2-.4-3.1-.1-.9,0-2.5.3-3.4.6-.1,1.2-.2,1.9-.3.6-.1,1.2,0,1.8.3.7.3,1.3.6,1.9,1,1.5.9,1.9,1.1,3.9,1,.3-.2.7-.5,1.1-.9.4-.5.9-1,1.3-1.5.4-.4.7-.9,1.2-1.3.4-.4.9-.7,1.4-1.1v-.9c0-9.4,0-18.6,0-28-.4-5.4-.1-10.7-.2-16.1,0-5.4.1-10.8,0-16.2-.2-5.4-.1-10.8-.2-16.1,0-5.4.1-10.8,0-16.2-.2-6.1,0-12.1-.2-18.2,0-.1,0-.3,0-.6-.8,0-1.5-.1-2.2-.4-1.1-.6-1.9-1.5-2.7-2.4-1.2-1.4-1.9-3.1-2.5-4.8-.2-.7-.3-1.4-.5-2.2,0-.1.2-.3.2-.6h.4c0,0,.1.1.1.2,0,.9.2,1.7.6,2.5.7,1.5,1.2,3.1,2.3,4.4.7.8,1.4,1.6,2.2,2.3.5.4,1.2.6,2,.9v-12h-.1ZM109.7,263.1c0,0,.2-.2.3-.3-5.8-1.1-11.4-2.2-17-3.2-.6-1.9-1.1-3.7-2.9-4.7h-.8c-1.9.8-3,2.3-4.1,3.8-.8,1.1-1.9,1.6-3.2,1.6-1.1,0-2.3-.4-3.3-1-.5-.4-1-.7-1.5-1-1-.5-2-.9-3.2,0,0,1.2,0,2.5.2,3.7.2,1.2.4,2.5.7,3.7s.9,1.4,1.9,1.4c2.7,0,5.5,0,8.2-.2,1.7-.2,3.5-.4,5.2-.4s1.9.1,2.9.2c2.2.1,4.3,0,6.4.2,1.7.2,3.4.2,5.1-.1,1.2-.2,2.4-.6,3.4-1.4.9-.7,1.4-1.4,1.6-2.3h0Z"/>
            <path class="cls-2" d="M48.3,108.2c-.4.7-1.2.9-1.9,1.2-2.3.7-4.2,2.1-6.1,3.5-.4.3-.8.6-1.1.9,0,.5.1.9.2,1.4v2.2c0,1.9.2,3.7.2,5.5,0,1.8,0,3.6,0,5.5v2.4h-.6c-.4-1.2-.4-2.4-.4-3.5,0-3.4-.2-6.8-.2-10.2v-1.8c0-.2-.1-.4-.2-.6-1.4.8-2.7,1.7-4.1,2.4-2,1.1-4.3,1.4-6.4,1-1.9-.3-3.5-1.2-4.6-2.8-.9-1.2-1.7-2.5-2.2-4-.4-1.2-.7-2.6-.9-3.9-.4-2.7-.2-5.5-.2-8.2,0-2.7,0-5.5,0-8.2s0,0,0-.1h.5c0,0,0,.1,0,.2v.8c0,2.5.2,4.9.2,7.4,0,1.4-.2,2.7-.1,4.1.2,2.7.3,5.5,1.4,8.1.7,1.8,1.6,3.5,3,4.7,1.1,1,2.4,1.5,4,1.6,2.6.1,4.8-.8,6.8-2.2,1.7-1.1,3.3-2.4,4.9-3.5,1.9-1.3,4-2.4,6.2-3.1.7-.2,1.2-.6,1.7-.5h0Z"/>
            <path class="cls-2" d="M62.3,132.3c.2,0,.4,0,.7,0v1.3c0,1.7-.1,3.3,0,5,.2,1.7,0,3.3.2,5,.1,1.2.1,2.5.2,3.7,0,.2,0,.4,0,.6,1,.6,2.1.4,3.1.5.1.1.2.2.4.5-1.7,0-3.2.3-4.6-.7,0-.6,0-1.2,0-1.7-.2-1.9,0-3.9-.2-5.8-.2-2.4-.1-4.7-.2-7.1,0-.4.1-.9.2-1.2h0Z"/>
            <path class="cls-2" d="M51.9,112"/>
            <path class="cls-2" d="M41.8,145.3c-.1,0-.2-.2-.4-.3,0,0,0-.2.1-.2,1.3-.7,2-1.9,2.7-3.1.9-1.5,1.4-3.2,1.7-5,0-.7.2-1.4.2-2,0-.4.2-.9.2-1.4h.6c.2,1.9,0,3.6-.5,5.3-.4,1.7-1.1,3.2-2,4.6-.6.8-1.2,1.6-2.2,2,0,0-.2,0-.4,0h0Z"/>
            <path class="cls-2" d="M63.4,73l-.4.4c-.8.1-1.3,0-1.6-.7.2-.7.7-.9,1.4-.9.3.2.7.4.6,1.2h0Z"/>
            <path class="cls-2" d="M61.7,65.6c-.5-.3-.8-.5-1.1-.7-.2-.6.2-.9.6-1.1.7-.1,1.2.1,1.5.9-.2.2-.6.5-1,.9h0Z"/>
            <path class="cls-2" d="M55.2,266.8c0-1.6,1.4-3.3,3.4-4.2.1.1.3.2.6.4-1,.3-1.5,1.1-2.2,1.6-.6.6-.9,1.6-1.8,2.2Z"/>
            <path class="cls-2" d="M109.7,263.1c-1.2,1.1-2.5,1.5-4.1,1.7-.7.1-1.5.3-2.3,0s-1.5,0-2.3-.3c-.6-.2-1.3-.2-1.9-.2-2.1-.1-4.2-.7-6.1-1.4-.7-.2-1.4-.5-2-.7-.1,0-.2-.2-.3-.4.2,0,.4,0,.6,0,1.8.6,3.5,1.3,5.4,1.6.6.1,1.3.3,1.9.4.9.1,1.7,0,2.5.3.9.3,1.9,0,2.8.4.1,0,.2,0,.4,0,1.5-.2,3.1-.4,4.3-1.4.3-.2.6-.2.9-.2.1.1.1.3.2.4h0Z"/>
            <path class="cls-2" d="M81.9,266c-.3,0-.6,0-.9-.2-.5-.2-1-.5-1.4-.7-1-.5-2-.8-3.2-.8h-1.4c.9-.6,1.7-.6,2.4-.4,1.7.2,3.5.8,4.5,2.2Z"/>
          </g>
          <path class="cls-3" d="M43.7,103.7l3.6-3.4,1.5-1.5,1.2-2.2s1.1-2.1,1.2-2.9.2-2.2.8-2.4,1.3-.2,1.5.8.3,1.5.1,3.5.4,2.2.4,2.2c0,0,1.4.8,3.9.8s1.9,2,1.9,2c0,0-.2.3-.5.4,0,0,1.1.5.2,1.9,0,0,1.5.9-.7,2,0,0,1.7,1.1-1,2.1,0,0-8.7,1-12.3,2s-1.7-5.4-1.7-5.4Z"/>
          <g id="Hand">
            <path class="cls-2" d="M57.3,101.7c.6,0,1.3-.1,1.9-.3s1-.7,1-1.3c0-.6-.6-1.1-1.2-1.3s-1.2-.2-1.9-.3c-.7,0-1.4,0-2.1-.3-.4-.1-1-.3-1.2-.7-.2-.3-.2-1-.1-1.3,0-1.2.3-2.3.1-3.5,0-.4-.1-.9-.4-1.2s-.6-.6-1.1-.6c-.4,0-.8.4-.9.7s-.3.8-.3,1.2c-.4,2-.3,2.1-1.3,3.8-.1.2-1.3,2.3-1.5,2.5-.2.2-.4.4-.7.5-.5.3-1,.7-1.4,1,0,0-.5.2-.5.3,0,.1.4.2.5.2s.3-.1.4-.2c.5-.3.9-.7,1.4-1,.2-.2.4-.3.6-.5.2-.2.3-.4.5-.7,1.2-2,2.2-4.1,2.6-6.3,0-.3,0-.5.2-.7s.4-.4.6-.4c.4,0,.6.4.7.8.3,1.3.2,2.7.1,4.1,0,.4,0,.9.2,1.3.4.5.4.6,1.1.9s1.9.3,2.7.3c.7,0,1.5.3,2.1.8.2.3.4.7.2,1-.1.2-.3.3-.5.3-.7.2-1.4.3-2.2.3-.1,0-.3,0-.4.1,0,.1,0,.2.1.3s.2,0,.4,0c.1,0,.2,0,.4,0Z"/>
            <path class="cls-2" d="M57.4,103.7h0c1.7,0,2.7-.6,2.7-1.6,0-.8-.5-1.2-.8-1.2-.1,0-.3,0-.3.2,0,.1,0,.3.2.3,0,0,.4.1.4.7,0,.8-1.2,1.1-2.2,1.1-.1,0-.2.1-.2.3,0,.1.1.2.2.2Z"/>
            <path class="cls-2" d="M57.5,105.3s0,0,0,0c.2,0,.3,0,.5,0,.3,0,.6,0,1-.2.4-.2,1.2-.5,1.1-1.3,0-.6-.6-.9-.9-1-.1,0-.3,0-.3.2s0,.3.2.3c0,0,.5.1.5.5,0,.4-.3.6-.8.8-.3.1-.5.1-.8.2-.2,0-.3,0-.5,0-.1,0-.2.1-.2.3,0,.1.1.2.2.2Z"/>
            <path class="cls-2" d="M48.4,108.7s2.8-.5,5.2-.8c2.5-.3,4.7-.9,4.8-1,0,0,.1,0,.2,0,.3-.1,1-.3.9-1.1,0-.9-1.1-1.1-1.1-1.1-.1,0-.3,0-.3.2,0,.1,0,.3.2.3,0,0,.7.2.8.7,0,.3,0,.5-.5.6,0,0-2.6.9-5,1.1-2.4.3-5.1.7-5.1.7-.1,0,0,0,0,.2,0,.1,0,.1,0,.1Z"/>
          </g>
          <g>
            <path class="cls-3" d="M84.6,102.4l-3.6-3.4-1.5-1.5-1.2-2.2s-1.1-2.1-1.2-2.9-.2-2.2-.8-2.4-1.3-.2-1.5.8-.3,1.5-.1,3.5-.4,2.2-.4,2.2c0,0-1.4.8-3.9.8s-1.9,2-1.9,2c0,0,.2.3.5.4,0,0-1.1.5-.2,1.9,0,0-1.5.9.7,2,0,0-1.7,1.1,1,2.1,0,0,8.7,1,12.3,2,3.5,1.1,1.7-5.4,1.7-5.4Z"/>
            <g id="Hand-2" data-name="Hand">
              <path class="cls-2" d="M71,100.4c-.6,0-1.3-.1-1.9-.3s-1-.7-1-1.3c0-.6.6-1.1,1.2-1.3s1.2-.2,1.9-.3c.7,0,1.4,0,2.1-.3.4-.1,1-.3,1.2-.7.2-.3.2-1,.1-1.3,0-1.2-.3-2.3-.1-3.5,0-.4.1-.9.4-1.2s.6-.6,1.1-.6c.4,0,.8.4.9.7s.3.8.3,1.2c.4,2,.3,2.1,1.3,3.8.1.2,1.3,2.3,1.5,2.5.2.2.4.4.7.5.5.3,1,.7,1.4,1,0,0,.5.2.5.3,0,.1-.4.2-.5.2s-.3-.1-.4-.2c-.5-.3-.9-.7-1.4-1-.2-.2-.4-.3-.6-.5-.2-.2-.3-.4-.5-.7-1.2-2-2.2-4.1-2.6-6.3,0-.3,0-.5-.2-.7s-.4-.4-.6-.4c-.4,0-.6.4-.7.8-.3,1.3-.2,2.7-.1,4.1,0,.4,0,.9-.2,1.3-.4.5-.4.6-1.1.9s-1.9.3-2.7.3c-.7,0-1.5.3-2.1.8-.2.3-.4.7-.2,1,.1.2.3.3.5.3.7.2,1.4.3,2.2.3.1,0,.3,0,.4.1,0,.1,0,.2-.1.3s-.2,0-.4,0c-.1,0-.2,0-.4,0Z"/>
              <path class="cls-2" d="M70.9,102.4h0c-1.7,0-2.7-.6-2.7-1.6,0-.8.5-1.2.8-1.2.1,0,.3,0,.3.2,0,.1,0,.3-.2.3,0,0-.4.1-.4.7,0,.8,1.2,1.1,2.2,1.1.1,0,.2.1.2.3,0,.1-.1.2-.2.2Z"/>
              <path class="cls-2" d="M70.7,104s0,0,0,0c-.2,0-.3,0-.5,0-.3,0-.6,0-1-.2-.4-.2-1.2-.5-1.1-1.3,0-.6.6-.9.9-1,.1,0,.3,0,.3.2s0,.3-.2.3c0,0-.5.1-.5.5,0,.4.3.6.8.8.3.1.5.1.8.2.2,0,.3,0,.5,0,.1,0,.2.1.2.3,0,.1-.1.2-.2.2Z"/>
              <path class="cls-2" d="M79.9,107.4s-2.8-.5-5.2-.8c-2.5-.3-4.7-.9-4.8-1,0,0-.1,0-.2,0-.3-.1-1-.3-.9-1.1,0-.9,1.1-1.1,1.1-1.1.1,0,.3,0,.3.2,0,.1,0,.3-.2.3,0,0-.7.2-.8.7,0,.3,0,.5.5.6,0,0,2.6.9,5,1.1,2.4.3,5.1.7,5.1.7.1,0,0,0,0,.2,0,.1,0,.1,0,.1Z"/>
            </g>
          </g>
        </g>
      </g>
    </g>
  </g>
</svg>